<?xml version="1.0" standalone="no"?><!DOCTYPE svg PUBLIC "-//W3C//DTD SVG 1.1//EN" "http://www.w3.org/Graphics/SVG/1.1/DTD/svg11.dtd"><svg t="1597311562422" class="icon" viewBox="0 0 4827 1024" version="1.1" xmlns="http://www.w3.org/2000/svg" p-id="3172" xmlns:xlink="http://www.w3.org/1999/xlink" width="150.84375" height="32" fill="#FFFFFF" ><defs><style type="text/css"></style></defs><path d="M842.1376 0c98.976914 0 179.2 80.457143 179.2 179.668114V844.361143c0 99.210971-80.223086 179.668114-179.2 179.668114H179.2C80.223086 1024 0 943.542857 0 844.331886V179.638857C0 80.457143 80.223086 0 179.2 0h662.9376z m42.773943 118.9888c-1.2288 0-2.399086 0.380343-2.399086 0.380343-261.558857 81.3056-425.837714 216.736914-448.775314 236.368457l-1.024 0.877714-2.750172 1.989486-2.720914 2.048-2.165028 1.550629-2.048 1.609142-1.755429 1.345829-4.534857-6.319543c-35.810743-48.9472-56.085943-63.195429-62.785829-66.911086l-0.760685-0.4096-0.029258-0.058514-5.061485-4.008228c-50.819657-38.239086-106.203429-17.349486-109.860572-15.886629l-2.925714 1.082514a26.858057 26.858057 0 0 1-14.189714 0.175543l-0.292572-0.087771-4.271543-1.492115C174.723657 256.731429 76.507429 227.854629 70.217143 226.011429l-0.321829-0.117029-1.726171-0.087771c-3.335314 0.234057-2.223543 3.627886-1.755429 4.798171l2.399086 0.994743c4.154514 1.8432 8.777143 4.066743 10.0352 4.681143l0.321829 0.175543 7.285028 3.364571c64.512 30.251886 104.711314 56.700343 107.666286 58.660571l5.266286 4.534858c39.029029 34.347886 48.508343 61.059657 49.298285 63.341714l2.282057 5.149257c10.678857 28.672-3.189029 78.4384-4.534857 111.440457l-0.087771 6.3488 0.351086 9.479314c9.362286 165.741714 192.394971 225.982171 223.290514 242.453943l1.579886 0.877715 8.338285 5.032228c129.8432 79.520914 221.213257 191.634286 224.987429 196.315429l2.048 1.579885c6.670629 4.622629 6.231771-2.516114 6.085486-3.920457l-6.992458-18.0224a1714.029714 1714.029714 0 0 0-62.639542-137.450057l-7.7824-15.242971-8.192-18.402743a4655.864686 4655.864686 0 0 0-46.431086-100.586057l-4.944457 1.755428c133.822171-47.455086 340.962743-75.220114 355.591314-77.151085l0.8192-0.117029 2.340571-0.468114c5.178514-1.609143 2.048-5.558857 1.141029-6.5536l-6.933943-4.330057c-95.729371-58.280229-225.835886-79.2576-237.216914-80.983772l-0.8192-0.117028-3.510857 0.380342c50.907429-92.540343 114.0736-175.3088 117.291885-179.492571l1.111772-1.930971c2.106514-4.476343-2.2528-4.096-3.423086-3.920458l-3.306057 0.643658a262.144 262.144 0 0 0-16.091429 3.949714l-0.351085 0.087771-1.609143 0.438857c-2.691657 0.380343-2.135771-1.960229-1.872457-2.779428l3.306057-6.612114c38.122057-75.424914 101.141943-164.0448 104.6528-168.96l0.585143-2.018743c0.643657-2.925714-0.585143-3.920457-1.989486-4.154515z" p-id="3173"></path><path d="M4652.6464 873.910857a6.173257 6.173257 0 0 0 6.026971-6.290286v-151.259428a6.173257 6.173257 0 0 0-6.026971-6.319543h-481.28a6.173257 6.173257 0 0 0-6.056229 6.319543v151.259428c0 3.4816 2.691657 6.319543 6.026972 6.319543h481.309257z m-536.751543 67.466972c-16.384 0-29.637486-14.160457-29.637486-31.597715v-235.578514c0-17.466514 13.253486-31.597714 29.637486-31.597714h592.193829c16.384 0 29.666743 14.1312 29.666743 31.597714v235.549257c0 17.466514-13.282743 31.597714-29.666743 31.597714h-592.164572zM4690.475886 151.639771v64.775315h-479.4368v83.090285l-0.585143 34.698972c-1.111771 55.003429-3.832686 139.322514-17.6128 184.027428a243.185371 243.185371 0 0 1-47.338057 86.074515l-7.460572 8.8064h-1.8432l-72.850285-41.749943 7.226514-8.6016c12.258743-14.716343 32.036571-40.1408 41.340343-69.2224 9.654857-30.3104 15.652571-122.236343 17.934628-185.578057l0.292572-8.426057V154.331429c0-1.462857 1.170286-2.691657 2.6624-2.691658h557.641143z" p-id="3174"></path><path d="M4054.191543 441.256229h755.273143v-64.775315h-755.273143zM4012.997486 941.377829h796.4672v-64.775315h-796.4672zM4360.894171 201.640229h91.048229l22.3232-109.626515h-84.026514z" p-id="3175"></path><path d="M4648.228571 574.405486h80.837486l0.087772-397.984915c0-13.7216-13.663086-24.839314-30.456686-24.7808l-143.535543 0.321829v52.4288h87.010743c3.335314 0 6.056229 2.223543 6.056228 4.973714v365.041372z" p-id="3176"></path><path d="M4728.890514 584.118857a29.140114 29.140114 0 0 1-28.496457 29.169372h-142.687086v-70.0416h88.532115c0.848457 0 1.521371-0.702171 1.521371-1.550629V417.792h81.130057v166.356114zM4374.615771 587.541943h83.207315V248.0128h-83.207315zM4269.348571 917.884343h83.178058V674.669714h-83.178058zM4461.597257 917.884343h83.178057V674.669714h-83.178057zM3157.021257 495.762286h773.588114V417.792h-773.558857z" p-id="3177"></path><path d="M3218.314971 940.821943v-0.175543h-26.331428c-1.6384-0.263314-2.633143-1.6384-2.428343-3.101257l70.890057-460.302629h90.112l-59.450514 385.579886h510.683428l-17.642057-219.662629h86.367086l30.837029 294.677943a2.691657 2.691657 0 0 1-2.399086 2.984229h-680.638172zM3198.215314 215.888457h695.764115V137.888914h-695.734858zM1471.926857 743.541029c-3.510857 42.130286-14.687086 67.905829-34.845257 90.638628-16.822857 18.958629-44.178286 37.946514-65.243429 46.372572l41.837715 69.456457a221.3888 221.3888 0 0 0 141.253485-206.467657H1471.926857zM1637.317486 477.418057h370.775771v-68.842057H1637.317486zM2328.517486 160.826514h700.357485V92.013714H2328.517486zM2420.063086 376.480914h169.3696v-64.248685h-169.3696zM2420.063086 482.011429h169.3696v-64.248686h-169.3696zM2772.523886 376.480914h169.3696v-64.248685h-169.3696zM2772.523886 482.011429h169.3696v-64.248686h-169.3696zM2452.099657 771.072h448.599772v-68.842057H2452.099657z" p-id="3178"></path><path d="M3074.633143 445.293714h-79.199086V271.008914a6.261029 6.261029 0 0 0-6.231771-6.290285H2368.190171a6.261029 6.261029 0 0 0-6.261028 6.290285v174.2848h-79.199086V229.024914c0-17.378743 14.014171-31.509943 31.275886-31.509943h729.380571c17.261714 0 31.246629 14.1312 31.246629 31.509943v216.2688zM2418.307657 878.884571h525.341257c3.510857 0 6.378057-2.779429 6.378057-6.231771v-253.659429a6.290286 6.290286 0 0 0-6.378057-6.231771H2418.307657a6.290286 6.290286 0 0 0-6.378057 6.231771v253.659429c0 3.452343 2.8672 6.231771 6.378057 6.231771m-58.514286 66.530743c-17.261714 0-31.275886-13.955657-31.275885-31.188114V577.418971c0-17.232457 14.014171-31.188114 31.305143-31.188114h642.340571c17.261714 0 31.275886 13.955657 31.275886 31.188114v336.808229c0 17.232457-14.014171 31.188114-31.305143 31.188114H2359.822629z" p-id="3179"></path><path d="M2639.784229 500.355657h82.388114V142.482286h-82.388114zM2639.784229 899.540114h82.388114V555.4176h-82.388114zM2200.341943 945.415314H1728.073143a250.938514 250.938514 0 0 1-190.815086-87.771428l-41.837714-48.976457 47.981714-55.968915 42.013257 52.662857a196.520229 196.520229 0 0 0 153.6 73.728h461.326629v66.325943z" p-id="3180"></path><path d="M1838.723657 830.698057h-82.388114V147.0464l82.388114 16.735086z" p-id="3181"></path><path d="M1838.723657 830.698057h-82.388114V147.0464l82.388114 16.735086zM1559.522743 252.576914h-94.266514l-29.344915-160.5632h86.981486zM1471.926857 748.1344h82.914743l0.087771-404.626286c0-17.320229-14.014171-31.3344-31.246628-31.275885l-147.280457 0.4096v66.208914h89.263543c3.452343 0 6.231771 2.808686 6.231771 6.261028v363.022629z" p-id="3182"></path><path d="M2150.4 703.926857c-10.386286-34.786743-16.618057-65.360457-18.724571-139.761371V132.447086c0-17.261714-13.955657-31.275886-31.188115-31.275886H1628.16V167.936h414.047086c3.452343 0 6.261029 2.808686 6.261028 6.261029v389.997714c1.024 62.581029 1.170286 105.969371 18.724572 166.853486 16.647314 57.695086 45.758171 90.697143 56.349257 104.272457h1.901714l74.898286-45.8752c-9.713371-12.522057-38.063543-45.933714-49.912686-85.518629" p-id="3183"></path></svg>